<svg width="16" height="16" xmlns="http://www.w3.org/2000/svg">
 <g>
  <title>Layer 1</title>
  <path fill="black" id="svg_2" d="m12.2,4.55l-7.65,0l0,0.85l7.65,0l0,-0.85zm-1.16517,2.54045l-0.10983,0.00955l1.275,0l-1.16517,-0.00955zm2.86517,1.4333l0,-6.52375l-11.9,0l0,11.9l1.02595,0l2.55085,-2.55l1.54828,0c0.21165,1.91165 1.83132,3.39915 3.79992,3.4c2.11225,-0.00085 3.82415,-1.71275 3.825,-3.825c-0.00042,-0.91035 -0.3196,-1.74462 -0.85,-2.40125zm-6.77492,1.97625l-1.90188,0l-2.3732,2.37278l0,-10.02278l10.2,0l0,4.89515c-0.60817,-0.40715 -1.33833,-0.67324 -2.125,-0.67324c-0.91077,0 -1.74505,0.34727 -2.4021,0.87809l-3.9729,0l0,0.85l3.19473,0c-0.33236,0.49683 -0.55081,1.07568 -0.61965,1.7zm3.79992,3.34985c-1.61542,-0.0034 -2.9223,-1.31027 -2.9257,-2.92485c0.0034,-1.61542 1.31028,-2.9223 2.9257,-2.92612c1.61458,0.00382 2.92145,1.3107 2.92485,2.92612c-0.0034,1.61458 -1.31027,2.92145 -2.92485,2.92485z"/>
  <g id="svg_3">
   <polygon id="svg_4" points="13.05 10.5 11.3509 10.5 11.3509 8.8 10.5 8.8 10.5 10.5 8.8 10.5 8.8 11.35 10.5 11.35 10.5 13.05 11.3509 13.05 11.3509 11.35 13.05 11.35"/>
  </g>
 </g>
</svg>