 <svg width="16" height="16" xmlns="http://www.w3.org/2000/svg">
      <desc>Created with Raphaël 2.1.2</desc>

      <g>
       <title>Feed</title>
       <path stroke="#333333" id="svg_1" stroke-width="0" d="m0.81239,8.59917c1.83674,0 3.56367,0.71371 4.86097,2.00845c1.30028,1.29533 2.01516,3.02126 2.01516,4.85794c0,0 2.83149,0 2.83149,0c0,-5.33533 -4.35554,-9.67501 -9.70821,-9.67501c0,0 0,2.80863 0,2.80863c0,0 0.0006,0 0.0006,0m0.00358,-4.97995c6.54792,0 11.87374,5.31578 11.87374,11.8493c0,0 2.83029,0 2.83029,0c0,-8.08235 -6.59626,-14.65852 -14.70463,-14.65852c0,0 0,2.80922 0,2.80922c0,0 0.0006,0 0.0006,0m3.91455,9.88587c0,1.075 -0.87779,1.94685 -1.96026,1.94685c0,0 -1.96026,-0.87185 -1.96026,-1.94685c0,-1.07382 0.87779,-1.94567 1.96026,-1.94567c0,0 1.96026,0.87126 1.96026,1.94567c0,0 0,0 0,0" fill="#333333"/>
       <circle id="svg_2" transform="matrix(10,0,0,10,10,10)" opacity="0" stroke-width="0.1" stroke="#333333" fill="#333333" r="0.1" cy="16.762" cx="7.213"/>
       <circle id="svg_3" transform="matrix(10,0,0,10,10,10)" opacity="0" stroke-width="0.1" stroke="#333333" fill="#333333" r="0.1" cy="17.967" cx="10.107"/>
       <path id="svg_4" opacity="0" stroke-width="0.1" d="m51.35,177.62l30.77999,0m28.94001,12.05002l21.73999,21.85999" stroke="#333333" fill="#333333"/>
       <circle id="svg_5" transform="matrix(10,0,0,10,10,10)" opacity="0" stroke-width="0.1" stroke="#333333" fill="#333333" r="0.1" cy="22.34" cx="14.46"/>
       <circle id="svg_6" transform="matrix(10,0,0,10,10,10)" opacity="0" stroke-width="0.1" stroke="#333333" fill="#333333" r="0.1" cy="25.254" cx="15.658"/>
       <path id="svg_7" opacity="0" stroke-width="0.1" d="m132.81,211.53l21.79001,21.87001m11.98,29.14l0,31.00998" stroke="#333333" fill="#333333"/>
       <circle id="svg_8" transform="matrix(10,0,0,10,10,10)" opacity="0" stroke-width="0.1" stroke="#333333" fill="#333333" r="0.1" cy="28.355" cx="15.658"/>
       <circle id="svg_9" transform="matrix(10,0,0,10,10,10)" opacity="0" stroke-width="0.1" stroke="#333333" fill="#333333" r="0.1" cy="28.355" cx="20.403"/>
       <path id="svg_10" opacity="0" stroke-width="0.1" d="m166.58,293.54999l0,0m47.45,0l0,0" stroke="#333333" fill="#333333"/>
       <circle id="svg_11" transform="matrix(10,0,0,10,10,10)" opacity="0" stroke-width="0.1" stroke="#333333" fill="#333333" r="0.1" cy="19.347" cx="20.403"/>
       <circle id="svg_12" transform="matrix(10,0,0,10,10,10)" opacity="0" stroke-width="0.1" stroke="#333333" fill="#333333" r="0.1" cy="12.02" cx="13.104"/>
       <path id="svg_13" opacity="0" stroke-width="0.1" d="m214.03,293.54999l0,-90.07999m-72.98999,-73.26999l-89.70001,0" stroke="#333333" fill="#333333"/>
       <circle id="svg_14" transform="matrix(10,0,0,10,10,10)" opacity="0" stroke-width="0.1" stroke="#333333" fill="#333333" r="0.1" cy="12.02" cx="4.134"/>
       <circle id="svg_15" transform="matrix(10,0,0,10,10,10)" opacity="0" stroke-width="0.1" stroke="#333333" fill="#333333" r="0.1" cy="16.762" cx="4.134"/>
       <path id="svg_16" opacity="0" stroke-width="0.1" d="m51.34,130.20001l0,0m0,47.41998l0,0" stroke="#333333" fill="#333333"/>
       <circle id="svg_17" transform="matrix(10,0,0,10,10,10)" opacity="0" stroke-width="0.1" stroke="#333333" fill="#333333" r="0.1" cy="16.762" cx="4.134"/>
       <circle id="svg_18" transform="matrix(10,0,0,10,10,10)" opacity="0" stroke-width="0.1" stroke="#333333" fill="#333333" r="0.1" cy="16.762" cx="4.135"/>
       <path id="svg_19" opacity="0" stroke-width="0.1" d="m51.34,177.62l0,0m0.01001,0l0,0" stroke="#333333" fill="#333333"/>
       <circle id="svg_20" transform="matrix(10,0,0,10,10,10)" opacity="0" stroke-width="0.1" stroke="#333333" fill="#333333" r="0.1" cy="8.354" cx="15.114"/>
       <circle id="svg_21" transform="matrix(10,0,0,10,10,10)" opacity="0" stroke-width="0.1" stroke="#333333" fill="#333333" r="0.1" cy="17.329" cx="24.039"/>
       <path id="svg_22" opacity="0" stroke-width="0.1" d="m51.41,93.54l109.73,0m89.25,89.75001l0,110.31" stroke="#333333" fill="#333333"/>
       <circle id="svg_23" transform="matrix(10,0,0,10,10,10)" opacity="0" stroke-width="0.1" stroke="#333333" fill="#333333" r="0.1" cy="28.36" cx="24.039"/>
       <circle id="svg_24" transform="matrix(10,0,0,10,10,10)" opacity="0" stroke-width="0.1" stroke="#333333" fill="#333333" r="0.1" cy="28.36" cx="28.782"/>
       <path id="svg_25" opacity="0" stroke-width="0.1" d="m250.39,293.60001l0,0m47.43001,0l0,0" stroke="#333333" fill="#333333"/>
       <circle id="svg_26" transform="matrix(10,0,0,10,10,10)" opacity="0" stroke-width="0.1" stroke="#333333" fill="#333333" r="0.1" cy="14.714" cx="28.782"/>
       <circle id="svg_27" transform="matrix(10,0,0,10,10,10)" opacity="0" stroke-width="0.1" stroke="#333333" fill="#333333" r="0.1" cy="3.611" cx="17.728"/>
       <path id="svg_28" opacity="0" stroke-width="0.1" d="m297.82001,293.60001l0,-136.46001m-110.54001,-111.03l-135.88,0" stroke="#333333" fill="#333333"/>
       <circle id="svg_29" transform="matrix(10,0,0,10,10,10)" opacity="0" stroke-width="0.1" stroke="#333333" fill="#333333" r="0.1" cy="3.611" cx="4.14"/>
       <circle id="svg_30" transform="matrix(10,0,0,10,10,10)" opacity="0" stroke-width="0.1" stroke="#333333" fill="#333333" r="0.1" cy="8.354" cx="4.14"/>
       <path id="svg_31" opacity="0" stroke-width="0.1" d="m51.4,46.11l0,0m0,47.43l0,0" stroke="#333333" fill="#333333"/>
       <circle id="svg_32" transform="matrix(10,0,0,10,10,10)" opacity="0" stroke-width="0.1" stroke="#333333" fill="#333333" r="0.1" cy="8.354" cx="4.14"/>
       <circle id="svg_33" transform="matrix(10,0,0,10,10,10)" opacity="0" stroke-width="0.1" stroke="#333333" fill="#333333" r="0.1" cy="8.354" cx="4.141"/>
       <path id="svg_34" opacity="0" stroke-width="0.1" d="m51.4,93.54l0,0m0.01,0l0,0" stroke="#333333" fill="#333333"/>
       <circle id="svg_35" transform="matrix(10,0,0,10,10,10)" opacity="0" stroke-width="0.1" stroke="#333333" fill="#333333" r="0.1" cy="26.86" cx="10.701"/>
       <circle id="svg_36" transform="matrix(10,0,0,10,10,10)" opacity="0" stroke-width="0.1" stroke="#333333" fill="#333333" r="0.1" cy="28.332" cx="9.23"/>
       <path id="svg_37" opacity="0" stroke-width="0.1" d="m117.01,260.45001l0,18.14999m-14.71001,14.72l-18.14,0" stroke="#333333" fill="#333333"/>
       <circle id="svg_38" transform="matrix(10,0,0,10,10,10)" opacity="0" stroke-width="0.1" stroke="#333333" fill="#333333" r="0.1" cy="28.332" cx="7.416"/>
       <circle id="svg_39" transform="matrix(10,0,0,10,10,10)" opacity="0" stroke-width="0.1" stroke="#333333" fill="#333333" r="0.1" cy="26.86" cx="4.131"/>
       <path id="svg_40" opacity="0" stroke-width="0.1" d="m84.16,293.32001l0,0m-32.84999,-14.72l0,-18.14999" stroke="#333333" fill="#333333"/>
       <circle id="svg_41" transform="matrix(10,0,0,10,10,10)" opacity="0" stroke-width="0.1" stroke="#333333" fill="#333333" r="0.1" cy="23.232" cx="4.131"/>
       <circle id="svg_42" transform="matrix(10,0,0,10,10,10)" opacity="0" stroke-width="0.1" stroke="#333333" fill="#333333" r="0.1" cy="21.76" cx="5.602"/>
       <path id="svg_43" opacity="0" stroke-width="0.1" d="m51.31,260.45001l0,-18.13m14.71,-14.72l18.13999,0" stroke="#333333" fill="#333333"/>
       <circle id="svg_44" transform="matrix(10,0,0,10,10,10)" opacity="0" stroke-width="0.1" stroke="#333333" fill="#333333" r="0.1" cy="21.76" cx="7.416"/>
       <circle id="svg_45" transform="matrix(10,0,0,10,10,10)" opacity="0" stroke-width="0.1" stroke="#333333" fill="#333333" r="0.1" cy="23.231" cx="10.701"/>
       <path id="svg_46" opacity="0" stroke-width="0.1" d="m84.16,227.60001l0,0m32.85001,14.71001l0,18.14" stroke="#333333" fill="#333333"/>
       <circle id="svg_47" transform="matrix(10,0,0,10,10,10)" opacity="0" stroke-width="0.1" stroke="#333333" fill="#333333" r="0.1" cy="25.045" cx="10.701"/>
       <circle id="svg_48" transform="matrix(10,0,0,10,10,10)" opacity="0" stroke-width="0.1" stroke="#333333" fill="#333333" r="0.1" cy="25.045" cx="10.701"/>
       <path id="svg_49" opacity="0" stroke-width="0.1" d="m117.01,260.45001l0,0m0,0l0,0" stroke="#333333" fill="#333333"/>
       <circle id="svg_50" transform="matrix(10,0,0,10,10,10)" stroke-width="0.1" stroke="#333333" fill="#aaaaaa" r="0" cy="16.762" cx="4.135"/>
       <circle id="svg_51" transform="matrix(10,0,0,10,10,10)" stroke-width="0.1" stroke="#333333" fill="#aaaaaa" r="0" cy="20.153" cx="12.281"/>
       <circle id="svg_52" transform="matrix(10,0,0,10,10,10)" stroke-width="0.1" stroke="#333333" fill="#aaaaaa" r="0" cy="28.355" cx="15.658"/>
       <circle id="svg_53" transform="matrix(10,0,0,10,10,10)" stroke-width="0.1" stroke="#333333" fill="#aaaaaa" r="0" cy="28.355" cx="20.403"/>
       <circle id="svg_54" transform="matrix(10,0,0,10,10,10)" stroke-width="0.1" stroke="#333333" fill="#aaaaaa" r="0" cy="12.02" cx="4.134"/>
       <circle id="svg_55" transform="matrix(10,0,0,10,10,10)" stroke-width="0.1" stroke="#333333" fill="#aaaaaa" r="0" cy="16.762" cx="4.134"/>
       <circle id="svg_56" transform="matrix(10,0,0,10,10,10)" stroke-width="0.1" stroke="#333333" fill="#aaaaaa" r="0" cy="16.762" cx="4.135"/>
       <circle id="svg_57" transform="matrix(10,0,0,10,10,10)" stroke-width="0.1" stroke="#333333" fill="#aaaaaa" r="0" cy="8.354" cx="4.141"/>
       <circle id="svg_58" transform="matrix(10,0,0,10,10,10)" stroke-width="0.1" stroke="#333333" fill="#aaaaaa" r="0" cy="28.36" cx="24.039"/>
       <circle id="svg_59" transform="matrix(10,0,0,10,10,10)" stroke-width="0.1" stroke="#333333" fill="#aaaaaa" r="0" cy="28.36" cx="28.782"/>
       <circle id="svg_60" transform="matrix(10,0,0,10,10,10)" stroke-width="0.1" stroke="#333333" fill="#aaaaaa" r="0" cy="3.611" cx="4.14"/>
       <circle id="svg_61" transform="matrix(10,0,0,10,10,10)" stroke-width="0.1" stroke="#333333" fill="#aaaaaa" r="0" cy="8.354" cx="4.14"/>
       <circle id="svg_62" transform="matrix(10,0,0,10,10,10)" stroke-width="0.1" stroke="#333333" fill="#aaaaaa" r="0" cy="8.354" cx="4.141"/>
       <circle id="svg_63" transform="matrix(10,0,0,10,10,10)" stroke-width="0.1" stroke="#333333" fill="#aaaaaa" r="0" cy="25.045" cx="10.701"/>
       <circle id="svg_64" transform="matrix(10,0,0,10,10,10)" stroke-width="0.1" stroke="#333333" fill="#aaaaaa" r="0" cy="28.332" cx="7.416"/>
       <circle id="svg_65" transform="matrix(10,0,0,10,10,10)" stroke-width="0.1" stroke="#333333" fill="#aaaaaa" r="0" cy="25.045" cx="4.131"/>
       <circle id="svg_66" transform="matrix(10,0,0,10,10,10)" stroke-width="0.1" stroke="#333333" fill="#aaaaaa" r="0" cy="21.76" cx="7.416"/>
       <circle id="svg_67" transform="matrix(10,0,0,10,10,10)" stroke-width="0.1" stroke="#333333" fill="#aaaaaa" r="0" cy="25.045" cx="10.701"/>
       <circle id="svg_68" transform="matrix(10,0,0,10,10,10)" stroke-width="0.1" stroke="#333333" fill="#aaaaaa" r="0" cy="25.045" cx="10.701"/>
      </g>
     </svg>