<svg width="16" height="16" xmlns="http://www.w3.org/2000/svg">
        <desc>Created with Raphaël 2.1.2</desc>

        <g>
         <title>Search</title>
         <path stroke="#333333" id="svg_1" stroke-width="0" d="m15.42,13.60401c0,0 -3.96425,-3.96426 -3.96425,-3.96426c0.53406,-0.88064 0.84726,-1.91092 0.84781,-3.01575c-0.00056,-3.22269 -2.6102,-5.8329 -5.83123,-5.83401c-3.22158,0.00111 -5.83234,2.61131 -5.83234,5.83345c0,3.22047 2.61076,5.83067 5.83234,5.83067c1.10539,0 2.13567,-0.3132 3.0163,-0.84726c0,0 3.96537,3.96481 3.96537,3.96481c0,0 1.96599,-1.96766 1.96599,-1.96766c0,0 0,0 0,0m-12.55532,-6.98056c0.00334,-1.9927 1.61496,-3.60377 3.6071,-3.60821c1.99103,0.00445 3.60377,1.61552 3.6071,3.60821c-0.0039,1.99158 -1.61607,3.60265 -3.6071,3.6071c-1.99214,-0.00445 -3.60377,-1.61552 -3.6071,-3.6071c0,0 0,0 0,0" fill="#333333"/>
         <circle id="svg_2" transform="matrix(10,0,0,10,10,10)" opacity="0" stroke-width="0.1" stroke="#333333" fill="#333333" r="0.1" cy="26.433" cx="29.772"/>
         <circle id="svg_3" transform="matrix(10,0,0,10,10,10)" opacity="0" stroke-width="0.1" stroke="#333333" fill="#333333" r="0.1" cy="19.307" cx="22.646"/>
         <path id="svg_4" opacity="0" stroke-width="0.1" d="m307.72,274.33002l0,0m-71.25999,-71.26003l0,0" stroke="#333333" fill="#333333"/>
         <circle id="svg_5" transform="matrix(10,0,0,10,10,10)" opacity="0" stroke-width="0.1" stroke="#333333" fill="#333333" r="0.1" cy="17.724" cx="23.606"/>
         <circle id="svg_6" transform="matrix(10,0,0,10,10,10)" opacity="0" stroke-width="0.1" stroke="#333333" fill="#333333" r="0.1" cy="15.872" cx="24.169"/>
         <path id="svg_7" opacity="0" stroke-width="0.1" d="m236.46001,203.06999l9.60001,-15.83m5.62999,-18.51999l0.00999,-19.86" stroke="#333333" fill="#333333"/>
         <circle id="svg_8" transform="matrix(10,0,0,10,10,10)" opacity="0" stroke-width="0.1" stroke="#333333" fill="#333333" r="0.1" cy="8.093" cx="24.169"/>
         <circle id="svg_9" transform="matrix(10,0,0,10,10,10)" opacity="0" stroke-width="0.1" stroke="#333333" fill="#333333" r="0.1" cy="3.401" cx="19.478"/>
         <path id="svg_10" opacity="0" stroke-width="0.1" d="m251.7,148.86l-0.00999,-57.92999m-46.91,-46.92001l-57.90001,-0.02" stroke="#333333" fill="#333333"/>
         <circle id="svg_11" transform="matrix(10,0,0,10,10,10)" opacity="0" stroke-width="0.1" stroke="#333333" fill="#333333" r="0.1" cy="3.401" cx="7.897"/>
         <circle id="svg_12" transform="matrix(10,0,0,10,10,10)" opacity="0" stroke-width="0.1" stroke="#333333" fill="#333333" r="0.1" cy="8.093" cx="3.204"/>
         <path id="svg_13" opacity="0" stroke-width="0.1" d="m146.87999,43.99l-57.90999,0.02m-46.93,46.92001l0,57.92" stroke="#333333" fill="#333333"/>
         <circle id="svg_14" transform="matrix(10,0,0,10,10,10)" opacity="0" stroke-width="0.1" stroke="#333333" fill="#333333" r="0.1" cy="19.674" cx="3.204"/>
         <circle id="svg_15" transform="matrix(10,0,0,10,10,10)" opacity="0" stroke-width="0.1" stroke="#333333" fill="#333333" r="0.1" cy="24.366" cx="7.897"/>
         <path id="svg_16" opacity="0" stroke-width="0.1" d="m42.04,148.85001l0,57.88998m46.93,46.92l57.90999,0" stroke="#333333" fill="#333333"/>
         <circle id="svg_17" transform="matrix(10,0,0,10,10,10)" opacity="0" stroke-width="0.1" stroke="#333333" fill="#333333" r="0.1" cy="24.366" cx="15.675"/>
         <circle id="svg_18" transform="matrix(10,0,0,10,10,10)" opacity="0" stroke-width="0.1" stroke="#333333" fill="#333333" r="0.1" cy="23.803" cx="17.527"/>
         <path id="svg_19" opacity="0" stroke-width="0.1" d="m146.87999,253.65999l19.87001,0m18.52,-5.62999l15.83,-9.59999" stroke="#333333" fill="#333333"/>
         <circle id="svg_20" transform="matrix(10,0,0,10,10,10)" opacity="0" stroke-width="0.1" stroke="#333333" fill="#333333" r="0.1" cy="22.843" cx="19.11"/>
         <circle id="svg_21" transform="matrix(10,0,0,10,10,10)" opacity="0" stroke-width="0.1" stroke="#333333" fill="#333333" r="0.1" cy="29.97" cx="26.238"/>
         <path id="svg_22" opacity="0" stroke-width="0.1" d="m201.10001,238.43001l0,0m71.28,71.26997l0,0" stroke="#333333" fill="#333333"/>
         <circle id="svg_23" transform="matrix(10,0,0,10,10,10)" opacity="0" stroke-width="0.1" stroke="#333333" fill="#333333" r="0.1" cy="29.97" cx="26.238"/>
         <circle id="svg_24" transform="matrix(10,0,0,10,10,10)" opacity="0" stroke-width="0.1" stroke="#333333" fill="#333333" r="0.1" cy="26.433" cx="29.772"/>
         <path id="svg_25" opacity="0" stroke-width="0.1" d="m272.38,309.69998l0,0m35.34,-35.36996l0,0" stroke="#333333" fill="#333333"/>
         <circle id="svg_26" transform="matrix(10,0,0,10,10,10)" opacity="0" stroke-width="0.1" stroke="#333333" fill="#333333" r="0.1" cy="26.433" cx="29.772"/>
         <circle id="svg_27" transform="matrix(10,0,0,10,10,10)" opacity="0" stroke-width="0.1" stroke="#333333" fill="#333333" r="0.1" cy="26.433" cx="29.772"/>
         <path id="svg_28" opacity="0" stroke-width="0.1" d="m307.72,274.33002l0,0m0,0l0,0" stroke="#333333" fill="#333333"/>
         <circle id="svg_29" transform="matrix(10,0,0,10,10,10)" opacity="0" stroke-width="0.1" stroke="#333333" fill="#333333" r="0.1" cy="10.303" cx="7.209"/>
         <circle id="svg_30" transform="matrix(10,0,0,10,10,10)" opacity="0" stroke-width="0.1" stroke="#333333" fill="#333333" r="0.1" cy="7.407" cx="10.106"/>
         <path id="svg_31" opacity="0" stroke-width="0.1" d="m82.03,148.85001l0.06001,-35.82m28.96999,-28.96001l35.81001,-0.07999" stroke="#333333" fill="#333333"/>
         <circle id="svg_32" transform="matrix(10,0,0,10,10,10)" opacity="0" stroke-width="0.1" stroke="#333333" fill="#333333" r="0.1" cy="7.407" cx="17.266"/>
         <circle id="svg_33" transform="matrix(10,0,0,10,10,10)" opacity="0" stroke-width="0.1" stroke="#333333" fill="#333333" r="0.1" cy="10.303" cx="20.165"/>
         <path id="svg_34" opacity="0" stroke-width="0.1" d="m146.87001,83.99001l35.78999,0.07999m28.99001,28.96001l0.05998,35.82" stroke="#333333" fill="#333333"/>
         <circle id="svg_35" transform="matrix(10,0,0,10,10,10)" opacity="0" stroke-width="0.1" stroke="#333333" fill="#333333" r="0.1" cy="17.465" cx="20.164"/>
         <circle id="svg_36" transform="matrix(10,0,0,10,10,10)" opacity="0" stroke-width="0.1" stroke="#333333" fill="#333333" r="0.1" cy="20.361" cx="17.266"/>
         <path id="svg_37" opacity="0" stroke-width="0.1" d="m211.70999,148.85001l-0.06999,35.79999m-28.98,28.96001l-35.78999,0.07999" stroke="#333333" fill="#333333"/>
         <circle id="svg_38" transform="matrix(10,0,0,10,10,10)" opacity="0" stroke-width="0.1" stroke="#333333" fill="#333333" r="0.1" cy="20.361" cx="10.106"/>
         <circle id="svg_39" transform="matrix(10,0,0,10,10,10)" opacity="0" stroke-width="0.1" stroke="#333333" fill="#333333" r="0.1" cy="17.465" cx="7.209"/>
         <path id="svg_40" opacity="0" stroke-width="0.1" d="m146.87001,213.68999l-35.81001,-0.07999m-28.96999,-28.96001l-0.06001,-35.79999" stroke="#333333" fill="#333333"/>
         <circle id="svg_41" transform="matrix(10,0,0,10,10,10)" opacity="0" stroke-width="0.1" stroke="#333333" fill="#333333" r="0.1" cy="13.885" cx="7.203"/>
         <circle id="svg_42" transform="matrix(10,0,0,10,10,10)" opacity="0" stroke-width="0.1" stroke="#333333" fill="#333333" r="0.1" cy="13.885" cx="7.203"/>
         <path id="svg_43" opacity="0" stroke-width="0.1" d="m82.03,148.85001l0,0m0,0l0,0" stroke="#333333" fill="#333333"/>
         <circle id="svg_44" transform="matrix(10,0,0,10,10,10)" stroke-width="0.1" stroke="#333333" fill="#aaaaaa" r="0" cy="26.433" cx="29.772"/>
         <circle id="svg_45" transform="matrix(10,0,0,10,10,10)" stroke-width="0.1" stroke="#333333" fill="#aaaaaa" r="0" cy="19.307" cx="22.646"/>
         <circle id="svg_46" transform="matrix(10,0,0,10,10,10)" stroke-width="0.1" stroke="#333333" fill="#aaaaaa" r="0" cy="13.886" cx="24.17"/>
         <circle id="svg_47" transform="matrix(10,0,0,10,10,10)" stroke-width="0.1" stroke="#333333" fill="#aaaaaa" r="0" cy="3.399" cx="13.688"/>
         <circle id="svg_48" transform="matrix(10,0,0,10,10,10)" stroke-width="0.1" stroke="#333333" fill="#aaaaaa" r="0" cy="13.885" cx="3.204"/>
         <circle id="svg_49" transform="matrix(10,0,0,10,10,10)" stroke-width="0.1" stroke="#333333" fill="#aaaaaa" r="0" cy="24.366" cx="13.688"/>
         <circle id="svg_50" transform="matrix(10,0,0,10,10,10)" stroke-width="0.1" stroke="#333333" fill="#aaaaaa" r="0" cy="22.843" cx="19.11"/>
         <circle id="svg_51" transform="matrix(10,0,0,10,10,10)" stroke-width="0.1" stroke="#333333" fill="#aaaaaa" r="0" cy="29.97" cx="26.238"/>
         <circle id="svg_52" transform="matrix(10,0,0,10,10,10)" stroke-width="0.1" stroke="#333333" fill="#aaaaaa" r="0" cy="26.433" cx="29.772"/>
         <circle id="svg_53" transform="matrix(10,0,0,10,10,10)" stroke-width="0.1" stroke="#333333" fill="#aaaaaa" r="0" cy="26.433" cx="29.772"/>
         <circle id="svg_54" transform="matrix(10,0,0,10,10,10)" stroke-width="0.1" stroke="#333333" fill="#aaaaaa" r="0" cy="13.885" cx="7.203"/>
         <circle id="svg_55" transform="matrix(10,0,0,10,10,10)" stroke-width="0.1" stroke="#333333" fill="#aaaaaa" r="0" cy="7.399" cx="13.687"/>
         <circle id="svg_56" transform="matrix(10,0,0,10,10,10)" stroke-width="0.1" stroke="#333333" fill="#aaaaaa" r="0" cy="13.885" cx="20.171"/>
         <circle id="svg_57" transform="matrix(10,0,0,10,10,10)" stroke-width="0.1" stroke="#333333" fill="#aaaaaa" r="0" cy="20.369" cx="13.687"/>
         <circle id="svg_58" transform="matrix(10,0,0,10,10,10)" stroke-width="0.1" stroke="#333333" fill="#aaaaaa" r="0" cy="13.885" cx="7.203"/>
         <circle id="svg_59" transform="matrix(10,0,0,10,10,10)" stroke-width="0.1" stroke="#333333" fill="#aaaaaa" r="0" cy="13.885" cx="7.203"/>
        </g>
       </svg>