<svg width="16" height="16" xmlns="http://www.w3.org/2000/svg">
       <desc>Created with Raphaël 2.1.2</desc>

       <g>
        <title>Setting</title>
        <path stroke="#333333" id="svg_1" stroke-width="0" d="m13.57743,8.45396c0,0 1.91258,-1.01141 1.91258,-1.01141c-0.03759,-0.3749 -0.11023,-0.73862 -0.20116,-1.09573c0,0 -2.12441,-0.29413 -2.12441,-0.29413c-0.18389,-0.44297 -0.42671,-0.85393 -0.7122,-1.23086c0,0 0.80974,-1.99183 0.80974,-1.99183c-0.26619,-0.25958 -0.55371,-0.49631 -0.85647,-0.71423c0,0 -1.80387,1.13231 -1.80387,1.13231c-0.42316,-0.2225 -0.87882,-0.39115 -1.35735,-0.49986c0,0 -0.65175,-2.01977 -0.65175,-2.01977c-0.18491,-0.01372 -0.36982,-0.02845 -0.55828,-0.02845c0,0 -0.37287,0.01422 -0.55828,0.02845c0,0 -0.64566,2.00199 -0.64566,2.00199c-0.49123,0.10515 -0.95705,0.27584 -1.39088,0.50088c0,0 -1.77593,-1.11555 -1.77593,-1.11555c-0.30225,0.21793 -0.58978,0.45465 -0.85596,0.71423c0,0 0.78738,1.93646 0.78738,1.93646c-0.30683,0.39369 -0.56387,0.82752 -0.75691,1.29537c0,0 -2.05736,0.28447 -2.05736,0.28447c-0.09042,0.35712 -0.16357,0.72033 -0.20066,1.09573c0,0 1.84654,0.97686 1.84654,0.97686c0.02083,0.5146 0.10617,1.01293 0.25704,1.48232c0,0 -1.39291,1.54023 -1.39291,1.54023c0.16205,0.33578 0.34238,0.66191 0.55117,0.96772c0,0 2.05076,-0.44043 2.05076,-0.44043c0.33629,0.36575 0.71931,0.68629 1.14196,0.95146c0,0 -0.07772,2.09851 -0.07772,2.09851c0.3368,0.15189 0.6868,0.27889 1.04748,0.38049c0,0 1.2974,-1.66773 1.2974,-1.66773c0.23012,0.02946 0.46329,0.04927 0.70103,0.04927c0.25755,0 0.50951,-0.02337 0.75741,-0.0574c0,0 1.30401,1.67688 1.30401,1.67688c0.36118,-0.1016 0.71068,-0.22859 1.04748,-0.38049c0,0 -0.07925,-2.1361 -0.07925,-2.1361c0.40284,-0.2606 0.76808,-0.57251 1.09015,-0.92505c0,0 2.1041,0.4516 2.1041,0.4516c0.20878,-0.30581 0.38912,-0.63143 0.55117,-0.96772c0,0 -1.43812,-1.59052 -1.43812,-1.59052c0.13817,-0.44449 0.21539,-0.91387 0.23774,-1.39799c0,0 0,0 0,0m-3.1785,2.42972c0,0 -0.90676,0.59029 -0.90676,0.59029c0,0 -0.55777,-0.85698 -0.55777,-0.85698c-0.29006,0.11176 -0.60248,0.17932 -0.93165,0.17932c-1.43812,0 -2.60345,-1.16583 -2.60345,-2.60345c0,-1.43812 1.16533,-2.60345 2.60345,-2.60345c1.43761,0 2.60345,1.16533 2.60345,2.60345c0,0.7183 -0.29108,1.36802 -0.76148,1.83943c0,0 0.55422,0.85139 0.55422,0.85139c0,0 0,0 0,0" fill="#333333"/>
        <circle id="svg_2" transform="matrix(10,0,0,10,10,10)" opacity="0" stroke-width="0.1" stroke="#333333" fill="#333333" r="0.1" cy="16.514" cx="26.974"/>
        <circle id="svg_3" transform="matrix(10,0,0,10,10,10)" opacity="0" stroke-width="0.1" stroke="#333333" fill="#333333" r="0.1" cy="14.523" cx="30.739"/>
        <path id="svg_4" opacity="0" stroke-width="0.1" d="m279.74002,175.14l0,0m37.64999,-19.91l0,0" stroke="#333333" fill="#333333"/>
        <circle id="svg_5" transform="matrix(10,0,0,10,10,10)" opacity="0" stroke-width="0.1" stroke="#333333" fill="#333333" r="0.1" cy="13.785" cx="30.665"/>
        <circle id="svg_6" transform="matrix(10,0,0,10,10,10)" opacity="0" stroke-width="0.1" stroke="#333333" fill="#333333" r="0.1" cy="13.069" cx="30.522"/>
        <path id="svg_7" opacity="0" stroke-width="0.1" d="m317.39001,155.23l-0.73999,-7.37999m-1.43002,-7.16l-1.79001,-7.03" stroke="#333333" fill="#333333"/>
        <circle id="svg_8" transform="matrix(10,0,0,10,10,10)" opacity="0" stroke-width="0.1" stroke="#333333" fill="#333333" r="0.1" cy="12.366" cx="30.343"/>
        <circle id="svg_9" transform="matrix(10,0,0,10,10,10)" opacity="0" stroke-width="0.1" stroke="#333333" fill="#333333" r="0.1" cy="11.787" cx="26.161"/>
        <path id="svg_10" opacity="0" stroke-width="0.1" d="m313.42999,133.66l0,0m-41.82001,-5.79001l0,0" stroke="#333333" fill="#333333"/>
        <circle id="svg_11" transform="matrix(10,0,0,10,10,10)" opacity="0" stroke-width="0.1" stroke="#333333" fill="#333333" r="0.1" cy="10.915" cx="25.799"/>
        <circle id="svg_12" transform="matrix(10,0,0,10,10,10)" opacity="0" stroke-width="0.1" stroke="#333333" fill="#333333" r="0.1" cy="10.106" cx="25.321"/>
        <path id="svg_13" opacity="0" stroke-width="0.1" d="m271.60999,127.87l-3.62,-8.71999m-4.78,-8.09l-5.62,-7.42" stroke="#333333" fill="#333333"/>
        <circle id="svg_14" transform="matrix(10,0,0,10,10,10)" opacity="0" stroke-width="0.1" stroke="#333333" fill="#333333" r="0.1" cy="9.364" cx="24.759"/>
        <circle id="svg_15" transform="matrix(10,0,0,10,10,10)" opacity="0" stroke-width="0.1" stroke="#333333" fill="#333333" r="0.1" cy="5.443" cx="26.353"/>
        <path id="svg_16" opacity="0" stroke-width="0.1" d="m257.59,103.64l0,0m15.94,-39.21l0,0" stroke="#333333" fill="#333333"/>
        <circle id="svg_17" transform="matrix(10,0,0,10,10,10)" opacity="0" stroke-width="0.1" stroke="#333333" fill="#333333" r="0.1" cy="4.932" cx="25.829"/>
        <circle id="svg_18" transform="matrix(10,0,0,10,10,10)" opacity="0" stroke-width="0.1" stroke="#333333" fill="#333333" r="0.1" cy="4.466" cx="25.263"/>
        <path id="svg_19" opacity="0" stroke-width="0.1" d="m273.53,64.43l-5.23999,-5.11m-5.66,-4.66l-5.96002,-4.29" stroke="#333333" fill="#333333"/>
        <circle id="svg_20" transform="matrix(10,0,0,10,10,10)" opacity="0" stroke-width="0.1" stroke="#333333" fill="#333333" r="0.1" cy="4.037" cx="24.667"/>
        <circle id="svg_21" transform="matrix(10,0,0,10,10,10)" opacity="0" stroke-width="0.1" stroke="#333333" fill="#333333" r="0.1" cy="6.266" cx="21.116"/>
        <path id="svg_22" opacity="0" stroke-width="0.1" d="m256.66998,50.37l0,0m-35.50999,22.28999l0,0" stroke="#333333" fill="#333333"/>
        <circle id="svg_23" transform="matrix(10,0,0,10,10,10)" opacity="0" stroke-width="0.1" stroke="#333333" fill="#333333" r="0.1" cy="5.828" cx="20.283"/>
        <circle id="svg_24" transform="matrix(10,0,0,10,10,10)" opacity="0" stroke-width="0.1" stroke="#333333" fill="#333333" r="0.1" cy="5.496" cx="19.386"/>
        <path id="svg_25" opacity="0" stroke-width="0.1" d="m221.15999,72.66l-8.32997,-4.38m-8.97002,-3.32l-9.42,-2.14" stroke="#333333" fill="#333333"/>
        <circle id="svg_26" transform="matrix(10,0,0,10,10,10)" opacity="0" stroke-width="0.1" stroke="#333333" fill="#333333" r="0.1" cy="5.282" cx="18.444"/>
        <circle id="svg_27" transform="matrix(10,0,0,10,10,10)" opacity="0" stroke-width="0.1" stroke="#333333" fill="#333333" r="0.1" cy="1.306" cx="17.161"/>
        <path id="svg_28" opacity="0" stroke-width="0.1" d="m194.44,62.82l0,0m-12.83002,-39.76l0,0" stroke="#333333" fill="#333333"/>
        <circle id="svg_29" transform="matrix(10,0,0,10,10,10)" opacity="0" stroke-width="0.1" stroke="#333333" fill="#333333" r="0.1" cy="1.279" cx="16.797"/>
        <circle id="svg_30" transform="matrix(10,0,0,10,10,10)" opacity="0" stroke-width="0.1" stroke="#333333" fill="#333333" r="0.1" cy="1.25" cx="16.433"/>
        <path id="svg_31" opacity="0" stroke-width="0.1" d="m181.60999,23.06l-3.63998,-0.27m-3.64,-0.29l-3.70999,0" stroke="#333333" fill="#333333"/>
        <circle id="svg_32" transform="matrix(10,0,0,10,10,10)" opacity="0" stroke-width="0.1" stroke="#333333" fill="#333333" r="0.1" cy="1.25" cx="16.062"/>
        <circle id="svg_33" transform="matrix(10,0,0,10,10,10)" opacity="0" stroke-width="0.1" stroke="#333333" fill="#333333" r="0.1" cy="1.278" cx="15.328"/>
        <path id="svg_34" opacity="0" stroke-width="0.1" d="m170.62001,22.5l0,0m-7.34001,0.28l-3.64999,0.28" stroke="#333333" fill="#333333"/>
        <circle id="svg_35" transform="matrix(10,0,0,10,10,10)" opacity="0" stroke-width="0.1" stroke="#333333" fill="#333333" r="0.1" cy="1.306" cx="14.963"/>
        <circle id="svg_36" transform="matrix(10,0,0,10,10,10)" opacity="0" stroke-width="0.1" stroke="#333333" fill="#333333" r="0.1" cy="5.247" cx="13.692"/>
        <path id="svg_37" opacity="0" stroke-width="0.1" d="m159.63,23.06l0,0m-12.71001,39.41l0,0" stroke="#333333" fill="#333333"/>
        <circle id="svg_38" transform="matrix(10,0,0,10,10,10)" opacity="0" stroke-width="0.1" stroke="#333333" fill="#333333" r="0.1" cy="5.454" cx="12.725"/>
        <circle id="svg_39" transform="matrix(10,0,0,10,10,10)" opacity="0" stroke-width="0.1" stroke="#333333" fill="#333333" r="0.1" cy="5.79" cx="11.808"/>
        <path id="svg_40" opacity="0" stroke-width="0.1" d="m146.92,62.47l-9.67,2.07m-9.17,3.36l-8.53999,4.43" stroke="#333333" fill="#333333"/>
        <circle id="svg_41" transform="matrix(10,0,0,10,10,10)" opacity="0" stroke-width="0.1" stroke="#333333" fill="#333333" r="0.1" cy="6.233" cx="10.954"/>
        <circle id="svg_42" transform="matrix(10,0,0,10,10,10)" opacity="0" stroke-width="0.1" stroke="#333333" fill="#333333" r="0.1" cy="4.037" cx="7.458"/>
        <path id="svg_43" opacity="0" stroke-width="0.1" d="m119.54001,72.33l0,0m-34.96001,-21.96l0,0" stroke="#333333" fill="#333333"/>
        <circle id="svg_44" transform="matrix(10,0,0,10,10,10)" opacity="0" stroke-width="0.1" stroke="#333333" fill="#333333" r="0.1" cy="4.466" cx="6.863"/>
        <circle id="svg_45" transform="matrix(10,0,0,10,10,10)" opacity="0" stroke-width="0.1" stroke="#333333" fill="#333333" r="0.1" cy="4.932" cx="6.297"/>
        <path id="svg_46" opacity="0" stroke-width="0.1" d="m84.58,50.37l-5.95,4.29m-5.66,4.66l-5.24001,5.11" stroke="#333333" fill="#333333"/>
        <circle id="svg_47" transform="matrix(10,0,0,10,10,10)" opacity="0" stroke-width="0.1" stroke="#333333" fill="#333333" r="0.1" cy="5.443" cx="5.773"/>
        <circle id="svg_48" transform="matrix(10,0,0,10,10,10)" opacity="0" stroke-width="0.1" stroke="#333333" fill="#333333" r="0.1" cy="9.255" cx="7.323"/>
        <path id="svg_49" opacity="0" stroke-width="0.1" d="m67.73,64.43l0,0m15.50001,38.12l0,0" stroke="#333333" fill="#333333"/>
        <circle id="svg_50" transform="matrix(10,0,0,10,10,10)" opacity="0" stroke-width="0.1" stroke="#333333" fill="#333333" r="0.1" cy="10.03" cx="6.719"/>
        <circle id="svg_51" transform="matrix(10,0,0,10,10,10)" opacity="0" stroke-width="0.1" stroke="#333333" fill="#333333" r="0.1" cy="10.884" cx="6.213"/>
        <path id="svg_52" opacity="0" stroke-width="0.1" d="m83.23,102.55l-6.04,7.74999m-5.06001,8.54l-3.8,9.21001" stroke="#333333" fill="#333333"/>
        <circle id="svg_53" transform="matrix(10,0,0,10,10,10)" opacity="0" stroke-width="0.1" stroke="#333333" fill="#333333" r="0.1" cy="11.805" cx="5.833"/>
        <circle id="svg_54" transform="matrix(10,0,0,10,10,10)" opacity="0" stroke-width="0.1" stroke="#333333" fill="#333333" r="0.1" cy="12.365" cx="1.783"/>
        <path id="svg_55" opacity="0" stroke-width="0.1" d="m68.33,128.05l0,0m-40.5,5.59999l0,0" stroke="#333333" fill="#333333"/>
        <circle id="svg_56" transform="matrix(10,0,0,10,10,10)" opacity="0" stroke-width="0.1" stroke="#333333" fill="#333333" r="0.1" cy="13.068" cx="1.605"/>
        <circle id="svg_57" transform="matrix(10,0,0,10,10,10)" opacity="0" stroke-width="0.1" stroke="#333333" fill="#333333" r="0.1" cy="13.783" cx="1.461"/>
        <path id="svg_58" opacity="0" stroke-width="0.1" d="m27.83,133.64999l-1.78,7.03m-1.44,7.15001l-0.73,7.39" stroke="#333333" fill="#333333"/>
        <circle id="svg_59" transform="matrix(10,0,0,10,10,10)" opacity="0" stroke-width="0.1" stroke="#333333" fill="#333333" r="0.1" cy="14.522" cx="1.388"/>
        <circle id="svg_60" transform="matrix(10,0,0,10,10,10)" opacity="0" stroke-width="0.1" stroke="#333333" fill="#333333" r="0.1" cy="16.445" cx="5.023"/>
        <path id="svg_61" opacity="0" stroke-width="0.1" d="m23.88,155.22l0,0m36.34999,19.23l0,0" stroke="#333333" fill="#333333"/>
        <circle id="svg_62" transform="matrix(10,0,0,10,10,10)" opacity="0" stroke-width="0.1" stroke="#333333" fill="#333333" r="0.1" cy="17.458" cx="5.064"/>
        <circle id="svg_63" transform="matrix(10,0,0,10,10,10)" opacity="0" stroke-width="0.1" stroke="#333333" fill="#333333" r="0.1" cy="18.439" cx="5.232"/>
        <path id="svg_64" opacity="0" stroke-width="0.1" d="m60.23,174.45l0.41001,10.13m1.68,9.81l2.97,9.24001" stroke="#333333" fill="#333333"/>
        <circle id="svg_65" transform="matrix(10,0,0,10,10,10)" opacity="0" stroke-width="0.1" stroke="#333333" fill="#333333" r="0.1" cy="19.363" cx="5.529"/>
        <circle id="svg_66" transform="matrix(10,0,0,10,10,10)" opacity="0" stroke-width="0.1" stroke="#333333" fill="#333333" r="0.1" cy="22.395" cx="2.787"/>
        <path id="svg_67" opacity="0" stroke-width="0.1" d="m65.29,203.63l0,0m-27.42,30.32001l0,0" stroke="#333333" fill="#333333"/>
        <circle id="svg_68" transform="matrix(10,0,0,10,10,10)" opacity="0" stroke-width="0.1" stroke="#333333" fill="#333333" r="0.1" cy="23.056" cx="3.106"/>
        <circle id="svg_69" transform="matrix(10,0,0,10,10,10)" opacity="0" stroke-width="0.1" stroke="#333333" fill="#333333" r="0.1" cy="23.698" cx="3.461"/>
        <path id="svg_70" opacity="0" stroke-width="0.1" d="m37.87,233.95001l3.19,6.60999m3.55,6.42l4.11,6.02" stroke="#333333" fill="#333333"/>
        <circle id="svg_71" transform="matrix(10,0,0,10,10,10)" opacity="0" stroke-width="0.1" stroke="#333333" fill="#333333" r="0.1" cy="24.3" cx="3.872"/>
        <circle id="svg_72" transform="matrix(10,0,0,10,10,10)" opacity="0" stroke-width="0.1" stroke="#333333" fill="#333333" r="0.1" cy="23.433" cx="7.909"/>
        <path id="svg_73" opacity="0" stroke-width="0.1" d="m48.72,253l0,0m40.37,-8.67l0,0" stroke="#333333" fill="#333333"/>
        <circle id="svg_74" transform="matrix(10,0,0,10,10,10)" opacity="0" stroke-width="0.1" stroke="#333333" fill="#333333" r="0.1" cy="24.153" cx="8.571"/>
        <circle id="svg_75" transform="matrix(10,0,0,10,10,10)" opacity="0" stroke-width="0.1" stroke="#333333" fill="#333333" r="0.1" cy="24.784" cx="9.325"/>
        <path id="svg_76" opacity="0" stroke-width="0.1" d="m89.09,244.33l6.62,7.2m7.54,6.31l8.31999,5.22" stroke="#333333" fill="#333333"/>
        <circle id="svg_77" transform="matrix(10,0,0,10,10,10)" opacity="0" stroke-width="0.1" stroke="#333333" fill="#333333" r="0.1" cy="25.306" cx="10.157"/>
        <circle id="svg_78" transform="matrix(10,0,0,10,10,10)" opacity="0" stroke-width="0.1" stroke="#333333" fill="#333333" r="0.1" cy="29.437" cx="10.004"/>
        <path id="svg_79" opacity="0" stroke-width="0.1" d="m111.56999,263.06l0,0m-1.53,41.31l0,0" stroke="#333333" fill="#333333"/>
        <circle id="svg_80" transform="matrix(10,0,0,10,10,10)" opacity="0" stroke-width="0.1" stroke="#333333" fill="#333333" r="0.1" cy="29.736" cx="10.667"/>
        <circle id="svg_81" transform="matrix(10,0,0,10,10,10)" opacity="0" stroke-width="0.1" stroke="#333333" fill="#333333" r="0.1" cy="29.986" cx="11.356"/>
        <path id="svg_82" opacity="0" stroke-width="0.1" d="m110.03999,304.37l6.63,2.98999m6.89,2.5l7.10001,2.00003" stroke="#333333" fill="#333333"/>
        <circle id="svg_83" transform="matrix(10,0,0,10,10,10)" opacity="0" stroke-width="0.1" stroke="#333333" fill="#333333" r="0.1" cy="30.186" cx="12.066"/>
        <circle id="svg_84" transform="matrix(10,0,0,10,10,10)" opacity="0" stroke-width="0.1" stroke="#333333" fill="#333333" r="0.1" cy="26.903" cx="14.62"/>
        <path id="svg_85" opacity="0" stroke-width="0.1" d="m130.66,311.86002l0,0m25.53999,-32.83002l0,0" stroke="#333333" fill="#333333"/>
        <circle id="svg_86" transform="matrix(10,0,0,10,10,10)" opacity="0" stroke-width="0.1" stroke="#333333" fill="#333333" r="0.1" cy="26.961" cx="15.073"/>
        <circle id="svg_87" transform="matrix(10,0,0,10,10,10)" opacity="0" stroke-width="0.1" stroke="#333333" fill="#333333" r="0.1" cy="27" cx="15.532"/>
        <path id="svg_88" opacity="0" stroke-width="0.1" d="m156.2,279.03l4.53,0.58002m4.59,0.38998l4.68001,0" stroke="#333333" fill="#333333"/>
        <circle id="svg_89" transform="matrix(10,0,0,10,10,10)" opacity="0" stroke-width="0.1" stroke="#333333" fill="#333333" r="0.1" cy="27" cx="16.507"/>
        <circle id="svg_90" transform="matrix(10,0,0,10,10,10)" opacity="0" stroke-width="0.1" stroke="#333333" fill="#333333" r="0.1" cy="26.954" cx="17.003"/>
        <path id="svg_91" opacity="0" stroke-width="0.1" d="m170,280l5.07001,0m4.95999,-0.45999l4.87999,-0.67001" stroke="#333333" fill="#333333"/>
        <circle id="svg_92" transform="matrix(10,0,0,10,10,10)" opacity="0" stroke-width="0.1" stroke="#333333" fill="#333333" r="0.1" cy="26.887" cx="17.491"/>
        <circle id="svg_93" transform="matrix(10,0,0,10,10,10)" opacity="0" stroke-width="0.1" stroke="#333333" fill="#333333" r="0.1" cy="30.188" cx="20.058"/>
        <path id="svg_94" opacity="0" stroke-width="0.1" d="m184.90999,278.87l0,0m25.67001,33.01001l0,0" stroke="#333333" fill="#333333"/>
        <circle id="svg_95" transform="matrix(10,0,0,10,10,10)" opacity="0" stroke-width="0.1" stroke="#333333" fill="#333333" r="0.1" cy="29.988" cx="20.769"/>
        <circle id="svg_96" transform="matrix(10,0,0,10,10,10)" opacity="0" stroke-width="0.1" stroke="#333333" fill="#333333" r="0.1" cy="29.738" cx="21.457"/>
        <path id="svg_97" opacity="0" stroke-width="0.1" d="m210.58,311.88l7.10999,-2m6.88002,-2.5l6.63,-2.99002" stroke="#333333" fill="#333333"/>
        <circle id="svg_98" transform="matrix(10,0,0,10,10,10)" opacity="0" stroke-width="0.1" stroke="#333333" fill="#333333" r="0.1" cy="29.439" cx="22.12"/>
        <circle id="svg_99" transform="matrix(10,0,0,10,10,10)" opacity="0" stroke-width="0.1" stroke="#333333" fill="#333333" r="0.1" cy="25.234" cx="21.964"/>
        <path id="svg_100" opacity="0" stroke-width="0.1" d="m231.20001,304.38998l0,0m-1.56,-42.04999l0,0" stroke="#333333" fill="#333333"/>
        <circle id="svg_101" transform="matrix(10,0,0,10,10,10)" opacity="0" stroke-width="0.1" stroke="#333333" fill="#333333" r="0.1" cy="24.721" cx="22.757"/>
        <circle id="svg_102" transform="matrix(10,0,0,10,10,10)" opacity="0" stroke-width="0.1" stroke="#333333" fill="#333333" r="0.1" cy="24.107" cx="23.476"/>
        <path id="svg_103" opacity="0" stroke-width="0.1" d="m229.64001,262.34l7.92999,-5.12997m7.18999,-6.14001l6.34001,-6.94" stroke="#333333" fill="#333333"/>
        <circle id="svg_104" transform="matrix(10,0,0,10,10,10)" opacity="0" stroke-width="0.1" stroke="#333333" fill="#333333" r="0.1" cy="23.413" cx="24.11"/>
        <circle id="svg_105" transform="matrix(10,0,0,10,10,10)" opacity="0" stroke-width="0.1" stroke="#333333" fill="#333333" r="0.1" cy="24.302" cx="28.252"/>
        <path id="svg_106" opacity="0" stroke-width="0.1" d="m251.10001,244.13l0,0m41.42001,8.89l0,0" stroke="#333333" fill="#333333"/>
        <circle id="svg_107" transform="matrix(10,0,0,10,10,10)" opacity="0" stroke-width="0.1" stroke="#333333" fill="#333333" r="0.1" cy="23.7" cx="28.663"/>
        <circle id="svg_108" transform="matrix(10,0,0,10,10,10)" opacity="0" stroke-width="0.1" stroke="#333333" fill="#333333" r="0.1" cy="23.059" cx="29.018"/>
        <path id="svg_109" opacity="0" stroke-width="0.1" d="m292.52002,253.02l4.10999,-6.01999m3.54999,-6.41002l3.19,-6.62" stroke="#333333" fill="#333333"/>
        <circle id="svg_110" transform="matrix(10,0,0,10,10,10)" opacity="0" stroke-width="0.1" stroke="#333333" fill="#333333" r="0.1" cy="22.397" cx="29.337"/>
        <circle id="svg_111" transform="matrix(10,0,0,10,10,10)" opacity="0" stroke-width="0.1" stroke="#333333" fill="#333333" r="0.1" cy="19.266" cx="26.506"/>
        <path id="svg_112" opacity="0" stroke-width="0.1" d="m303.37,233.97l0,0m-28.31,-31.31l0,0" stroke="#333333" fill="#333333"/>
        <circle id="svg_113" transform="matrix(10,0,0,10,10,10)" opacity="0" stroke-width="0.1" stroke="#333333" fill="#333333" r="0.1" cy="18.391" cx="26.778"/>
        <circle id="svg_114" transform="matrix(10,0,0,10,10,10)" opacity="0" stroke-width="0.1" stroke="#333333" fill="#333333" r="0.1" cy="17.467" cx="26.93"/>
        <path id="svg_115" opacity="0" stroke-width="0.1" d="m275.06,202.66l2.72,-8.75m1.52002,-9.24002l0.44,-9.52998" stroke="#333333" fill="#333333"/>
        <circle id="svg_116" transform="matrix(10,0,0,10,10,10)" opacity="0" stroke-width="0.1" stroke="#333333" fill="#333333" r="0.1" cy="16.514" cx="26.974"/>
        <circle id="svg_117" transform="matrix(10,0,0,10,10,10)" opacity="0" stroke-width="0.1" stroke="#333333" fill="#333333" r="0.1" cy="16.514" cx="26.974"/>
        <path id="svg_118" opacity="0" stroke-width="0.1" d="m279.74002,175.14l0,0m0,0l0,0" stroke="#333333" fill="#333333"/>
        <circle id="svg_119" transform="matrix(10,0,0,10,10,10)" opacity="0" stroke-width="0.1" stroke="#333333" fill="#333333" r="0.1" cy="21.297" cx="20.717"/>
        <circle id="svg_120" transform="matrix(10,0,0,10,10,10)" opacity="0" stroke-width="0.1" stroke="#333333" fill="#333333" r="0.1" cy="22.459" cx="18.932"/>
        <path id="svg_121" opacity="0" stroke-width="0.1" d="m217.17,222.97l0,0m-17.85001,11.62l0,0" stroke="#333333" fill="#333333"/>
        <circle id="svg_122" transform="matrix(10,0,0,10,10,10)" opacity="0" stroke-width="0.1" stroke="#333333" fill="#333333" r="0.1" cy="22.459" cx="18.932"/>
        <circle id="svg_123" transform="matrix(10,0,0,10,10,10)" opacity="0" stroke-width="0.1" stroke="#333333" fill="#333333" r="0.1" cy="20.772" cx="17.834"/>
        <path id="svg_124" opacity="0" stroke-width="0.1" d="m199.31999,234.59l0,0m-10.98,-16.87001l0,0" stroke="#333333" fill="#333333"/>
        <circle id="svg_125" transform="matrix(10,0,0,10,10,10)" opacity="0" stroke-width="0.1" stroke="#333333" fill="#333333" r="0.1" cy="20.992" cx="17.263"/>
        <circle id="svg_126" transform="matrix(10,0,0,10,10,10)" opacity="0" stroke-width="0.1" stroke="#333333" fill="#333333" r="0.1" cy="21.125" cx="16.648"/>
        <path id="svg_127" opacity="0" stroke-width="0.1" d="m188.34,217.71999l-5.70999,2.20003m-6.14999,1.32999l-6.48001,0" stroke="#333333" fill="#333333"/>
        <circle id="svg_128" transform="matrix(10,0,0,10,10,10)" opacity="0" stroke-width="0.1" stroke="#333333" fill="#333333" r="0.1" cy="21.125" cx="13.169"/>
        <circle id="svg_129" transform="matrix(10,0,0,10,10,10)" opacity="0" stroke-width="0.1" stroke="#333333" fill="#333333" r="0.1" cy="18.83" cx="10.875"/>
        <path id="svg_130" opacity="0" stroke-width="0.1" d="m170,221.25l-28.31,0m-22.94,-22.95l0,-28.3" stroke="#333333" fill="#333333"/>
        <circle id="svg_131" transform="matrix(10,0,0,10,10,10)" opacity="0" stroke-width="0.1" stroke="#333333" fill="#333333" r="0.1" cy="13.169" cx="10.875"/>
        <circle id="svg_132" transform="matrix(10,0,0,10,10,10)" opacity="0" stroke-width="0.1" stroke="#333333" fill="#333333" r="0.1" cy="10.875" cx="13.169"/>
        <path id="svg_133" opacity="0" stroke-width="0.1" d="m118.75,170l0,-28.31m22.94,-22.94l28.31,0" stroke="#333333" fill="#333333"/>
        <circle id="svg_134" transform="matrix(10,0,0,10,10,10)" opacity="0" stroke-width="0.1" stroke="#333333" fill="#333333" r="0.1" cy="10.875" cx="18.83"/>
        <circle id="svg_135" transform="matrix(10,0,0,10,10,10)" opacity="0" stroke-width="0.1" stroke="#333333" fill="#333333" r="0.1" cy="13.169" cx="21.125"/>
        <path id="svg_136" opacity="0" stroke-width="0.1" d="m170,118.75l28.3,0m22.95,22.94l0,28.31" stroke="#333333" fill="#333333"/>
        <circle id="svg_137" transform="matrix(10,0,0,10,10,10)" opacity="0" stroke-width="0.1" stroke="#333333" fill="#333333" r="0.1" cy="17.414" cx="21.125"/>
        <circle id="svg_138" transform="matrix(10,0,0,10,10,10)" opacity="0" stroke-width="0.1" stroke="#333333" fill="#333333" r="0.1" cy="18.693" cx="20.552"/>
        <path id="svg_139" opacity="0" stroke-width="0.1" d="m221.25,170l0,14.14m-5.73,12.79001l-9.26001,9.28" stroke="#333333" fill="#333333"/>
        <circle id="svg_140" transform="matrix(10,0,0,10,10,10)" opacity="0" stroke-width="0.1" stroke="#333333" fill="#333333" r="0.1" cy="19.621" cx="19.626"/>
        <circle id="svg_141" transform="matrix(10,0,0,10,10,10)" opacity="0" stroke-width="0.1" stroke="#333333" fill="#333333" r="0.1" cy="21.297" cx="20.717"/>
        <path id="svg_142" opacity="0" stroke-width="0.1" d="m206.25999,206.21001l0,0m10.91,16.75999l0,0" stroke="#333333" fill="#333333"/>
        <circle id="svg_143" transform="matrix(10,0,0,10,10,10)" opacity="0" stroke-width="0.1" stroke="#333333" fill="#333333" r="0.1" cy="21.297" cx="20.717"/>
        <circle id="svg_144" transform="matrix(10,0,0,10,10,10)" opacity="0" stroke-width="0.1" stroke="#333333" fill="#333333" r="0.1" cy="21.297" cx="20.717"/>
        <path id="svg_145" opacity="0" stroke-width="0.1" d="m217.17,222.97l0,0m0,0l0,0" stroke="#333333" fill="#333333"/>
        <circle id="svg_146" transform="matrix(10,0,0,10,10,10)" stroke-width="0.1" stroke="#333333" fill="#aaaaaa" r="0" cy="16.514" cx="26.974"/>
        <circle id="svg_147" transform="matrix(10,0,0,10,10,10)" stroke-width="0.1" stroke="#333333" fill="#aaaaaa" r="0" cy="14.523" cx="30.739"/>
        <circle id="svg_148" transform="matrix(10,0,0,10,10,10)" stroke-width="0.1" stroke="#333333" fill="#aaaaaa" r="0" cy="12.366" cx="30.343"/>
        <circle id="svg_149" transform="matrix(10,0,0,10,10,10)" stroke-width="0.1" stroke="#333333" fill="#aaaaaa" r="0" cy="11.787" cx="26.161"/>
        <circle id="svg_150" transform="matrix(10,0,0,10,10,10)" stroke-width="0.1" stroke="#333333" fill="#aaaaaa" r="0" cy="9.364" cx="24.759"/>
        <circle id="svg_151" transform="matrix(10,0,0,10,10,10)" stroke-width="0.1" stroke="#333333" fill="#aaaaaa" r="0" cy="5.443" cx="26.353"/>
        <circle id="svg_152" transform="matrix(10,0,0,10,10,10)" stroke-width="0.1" stroke="#333333" fill="#aaaaaa" r="0" cy="4.037" cx="24.667"/>
        <circle id="svg_153" transform="matrix(10,0,0,10,10,10)" stroke-width="0.1" stroke="#333333" fill="#aaaaaa" r="0" cy="6.266" cx="21.116"/>
        <circle id="svg_154" transform="matrix(10,0,0,10,10,10)" stroke-width="0.1" stroke="#333333" fill="#aaaaaa" r="0" cy="5.282" cx="18.444"/>
        <circle id="svg_155" transform="matrix(10,0,0,10,10,10)" stroke-width="0.1" stroke="#333333" fill="#aaaaaa" r="0" cy="1.306" cx="17.161"/>
        <circle id="svg_156" transform="matrix(10,0,0,10,10,10)" stroke-width="0.1" stroke="#333333" fill="#aaaaaa" r="0" cy="1.25" cx="16.062"/>
        <circle id="svg_157" transform="matrix(10,0,0,10,10,10)" stroke-width="0.1" stroke="#333333" fill="#aaaaaa" r="0" cy="1.306" cx="14.963"/>
        <circle id="svg_158" transform="matrix(10,0,0,10,10,10)" stroke-width="0.1" stroke="#333333" fill="#aaaaaa" r="0" cy="5.247" cx="13.692"/>
        <circle id="svg_159" transform="matrix(10,0,0,10,10,10)" stroke-width="0.1" stroke="#333333" fill="#aaaaaa" r="0" cy="6.233" cx="10.954"/>
        <circle id="svg_160" transform="matrix(10,0,0,10,10,10)" stroke-width="0.1" stroke="#333333" fill="#aaaaaa" r="0" cy="4.037" cx="7.458"/>
        <circle id="svg_161" transform="matrix(10,0,0,10,10,10)" stroke-width="0.1" stroke="#333333" fill="#aaaaaa" r="0" cy="5.443" cx="5.773"/>
        <circle id="svg_162" transform="matrix(10,0,0,10,10,10)" stroke-width="0.1" stroke="#333333" fill="#aaaaaa" r="0" cy="9.255" cx="7.323"/>
        <circle id="svg_163" transform="matrix(10,0,0,10,10,10)" stroke-width="0.1" stroke="#333333" fill="#aaaaaa" r="0" cy="11.805" cx="5.833"/>
        <circle id="svg_164" transform="matrix(10,0,0,10,10,10)" stroke-width="0.1" stroke="#333333" fill="#aaaaaa" r="0" cy="12.365" cx="1.783"/>
        <circle id="svg_165" transform="matrix(10,0,0,10,10,10)" stroke-width="0.1" stroke="#333333" fill="#aaaaaa" r="0" cy="14.522" cx="1.388"/>
        <circle id="svg_166" transform="matrix(10,0,0,10,10,10)" stroke-width="0.1" stroke="#333333" fill="#aaaaaa" r="0" cy="16.445" cx="5.023"/>
        <circle id="svg_167" transform="matrix(10,0,0,10,10,10)" stroke-width="0.1" stroke="#333333" fill="#aaaaaa" r="0" cy="19.363" cx="5.529"/>
        <circle id="svg_168" transform="matrix(10,0,0,10,10,10)" stroke-width="0.1" stroke="#333333" fill="#aaaaaa" r="0" cy="22.395" cx="2.787"/>
        <circle id="svg_169" transform="matrix(10,0,0,10,10,10)" stroke-width="0.1" stroke="#333333" fill="#aaaaaa" r="0" cy="24.3" cx="3.872"/>
        <circle id="svg_170" transform="matrix(10,0,0,10,10,10)" stroke-width="0.1" stroke="#333333" fill="#aaaaaa" r="0" cy="23.433" cx="7.909"/>
        <circle id="svg_171" transform="matrix(10,0,0,10,10,10)" stroke-width="0.1" stroke="#333333" fill="#aaaaaa" r="0" cy="25.306" cx="10.157"/>
        <circle id="svg_172" transform="matrix(10,0,0,10,10,10)" stroke-width="0.1" stroke="#333333" fill="#aaaaaa" r="0" cy="29.437" cx="10.004"/>
        <circle id="svg_173" transform="matrix(10,0,0,10,10,10)" stroke-width="0.1" stroke="#333333" fill="#aaaaaa" r="0" cy="30.186" cx="12.066"/>
        <circle id="svg_174" transform="matrix(10,0,0,10,10,10)" stroke-width="0.1" stroke="#333333" fill="#aaaaaa" r="0" cy="26.903" cx="14.62"/>
        <circle id="svg_175" transform="matrix(10,0,0,10,10,10)" stroke-width="0.1" stroke="#333333" fill="#aaaaaa" r="0" cy="27" cx="16"/>
        <circle id="svg_176" transform="matrix(10,0,0,10,10,10)" stroke-width="0.1" stroke="#333333" fill="#aaaaaa" r="0" cy="26.887" cx="17.491"/>
        <circle id="svg_177" transform="matrix(10,0,0,10,10,10)" stroke-width="0.1" stroke="#333333" fill="#aaaaaa" r="0" cy="30.188" cx="20.058"/>
        <circle id="svg_178" transform="matrix(10,0,0,10,10,10)" stroke-width="0.1" stroke="#333333" fill="#aaaaaa" r="0" cy="29.439" cx="22.12"/>
        <circle id="svg_179" transform="matrix(10,0,0,10,10,10)" stroke-width="0.1" stroke="#333333" fill="#aaaaaa" r="0" cy="25.234" cx="21.964"/>
        <circle id="svg_180" transform="matrix(10,0,0,10,10,10)" stroke-width="0.1" stroke="#333333" fill="#aaaaaa" r="0" cy="23.413" cx="24.11"/>
        <circle id="svg_181" transform="matrix(10,0,0,10,10,10)" stroke-width="0.1" stroke="#333333" fill="#aaaaaa" r="0" cy="24.302" cx="28.252"/>
        <circle id="svg_182" transform="matrix(10,0,0,10,10,10)" stroke-width="0.1" stroke="#333333" fill="#aaaaaa" r="0" cy="22.397" cx="29.337"/>
        <circle id="svg_183" transform="matrix(10,0,0,10,10,10)" stroke-width="0.1" stroke="#333333" fill="#aaaaaa" r="0" cy="19.266" cx="26.506"/>
        <circle id="svg_184" transform="matrix(10,0,0,10,10,10)" stroke-width="0.1" stroke="#333333" fill="#aaaaaa" r="0" cy="16.514" cx="26.974"/>
        <circle id="svg_185" transform="matrix(10,0,0,10,10,10)" stroke-width="0.1" stroke="#333333" fill="#aaaaaa" r="0" cy="16.514" cx="26.974"/>
        <circle id="svg_186" transform="matrix(10,0,0,10,10,10)" stroke-width="0.1" stroke="#333333" fill="#aaaaaa" r="0" cy="21.297" cx="20.717"/>
        <circle id="svg_187" transform="matrix(10,0,0,10,10,10)" stroke-width="0.1" stroke="#333333" fill="#aaaaaa" r="0" cy="22.459" cx="18.932"/>
        <circle id="svg_188" transform="matrix(10,0,0,10,10,10)" stroke-width="0.1" stroke="#333333" fill="#aaaaaa" r="0" cy="20.772" cx="17.834"/>
        <circle id="svg_189" transform="matrix(10,0,0,10,10,10)" stroke-width="0.1" stroke="#333333" fill="#aaaaaa" r="0" cy="21.125" cx="16"/>
        <circle id="svg_190" transform="matrix(10,0,0,10,10,10)" stroke-width="0.1" stroke="#333333" fill="#aaaaaa" r="0" cy="16" cx="10.875"/>
        <circle id="svg_191" transform="matrix(10,0,0,10,10,10)" stroke-width="0.1" stroke="#333333" fill="#aaaaaa" r="0" cy="10.875" cx="16"/>
        <circle id="svg_192" transform="matrix(10,0,0,10,10,10)" stroke-width="0.1" stroke="#333333" fill="#aaaaaa" r="0" cy="16" cx="21.125"/>
        <circle id="svg_193" transform="matrix(10,0,0,10,10,10)" stroke-width="0.1" stroke="#333333" fill="#aaaaaa" r="0" cy="19.621" cx="19.626"/>
        <circle id="svg_194" transform="matrix(10,0,0,10,10,10)" stroke-width="0.1" stroke="#333333" fill="#aaaaaa" r="0" cy="21.297" cx="20.717"/>
        <circle id="svg_195" transform="matrix(10,0,0,10,10,10)" stroke-width="0.1" stroke="#333333" fill="#aaaaaa" r="0" cy="21.297" cx="20.717"/>
       </g>
      </svg>