<svg width="16" height="16" xmlns="http://www.w3.org/2000/svg">
    <desc>Created with Raphaël 2.1.2</desc>
    <g>
        <title>Layer 1</title>
        <path id="svg_2" fill="#01DF01" d="m13.14826,7.94857c-0.00514,2.76097 -2.23872,4.99455 -4.99969,4.99969c-1.43706,0 -2.7244,-0.60796 -3.63692,-1.57876l1.18164,-0.82395l-4.51458,-2.11587l0.42512,4.9677l1.25307,-0.87366c1.28221,1.48219 3.17809,2.42385 5.2911,2.42385c3.86662,0 6.999,-3.13238 6.999,-6.999l-1.99873,0zm-4.99969,-4.99912c1.43763,0 2.72498,0.60853 3.63806,1.57933l-1.18164,0.82452l4.51458,2.11473l-0.42626,-4.96712l-1.25249,0.87366c-1.28278,-1.4822 -3.17809,-2.42557 -5.29225,-2.42557c-3.86548,0.00057 -6.999,3.13409 -6.99957,6.99957l2.00045,0c0.00457,-2.7604 2.23872,-4.99455 4.99912,-4.99912z"/>
    </g>
</svg>